<mxfile host="app.diagrams.net" modified="2023-04-10T02:41:46.736Z" agent="Mozilla/5.0 (Macintosh; Intel Mac OS X 10_15_7) AppleWebKit/537.36 (KHTML, like Gecko) Chrome/107.0.0.0 Safari/537.36" version="21.1.5" etag="-25TvEOraXcQm7HC81X7" type="github">
  <diagram name="페이지-1" id="X17JAB73Oa8SagHSXk7I">
    <mxGraphModel>
      <root>
        <mxCell id="0" />
        <mxCell id="1" parent="0" />
      </root>
    </mxGraphModel>
  </diagram>
</mxfile>
